HIERARCHY
ROOT Root
{
	OFFSET 0.0000 0.0000 0.0000
	CHANNELS 6 Xposition Yposition Zposition Zrotation Xrotation Yrotation
	JOINT Spine01
	{
		OFFSET 0.0000 -16.7008 118.8322
		CHANNELS 6 Xposition Yposition Zposition Zrotation Xrotation Yrotation
		JOINT Spine02
		{
			OFFSET 0.0000 11.8586 169.5859
			CHANNELS 6 Xposition Yposition Zposition Zrotation Xrotation Yrotation
			JOINT LeftShoulder
			{
				OFFSET 83.0000 21.5583 44.2746
				CHANNELS 6 Xposition Yposition Zposition Zrotation Xrotation Yrotation
				JOINT LeftArm
				{
					OFFSET 0.0000 -111.4369 141.3570
					CHANNELS 6 Xposition Yposition Zposition Zrotation Xrotation Yrotation
					JOINT LeftForeArm
					{
						OFFSET 0.0000 -172.4081 -79.8464
						CHANNELS 6 Xposition Yposition Zposition Zrotation Xrotation Yrotation
						JOINT LeftWrist
						{
							OFFSET 0.0000 -209.8784 7.1457
							CHANNELS 6 Xposition Yposition Zposition Zrotation Xrotation Yrotation
							JOINT LeftHand
							{
								OFFSET 0.0000 -64.9257 26.1658
								CHANNELS 6 Xposition Yposition Zposition Zrotation Xrotation Yrotation
								End Site
								{
									OFFSET 0.0000 -20.5704 56.3636
								}
							}
						}
					}
				}
			}
			JOINT RightShoulder
			{
				OFFSET -83.0000 21.5583 44.2746
				CHANNELS 6 Xposition Yposition Zposition Zrotation Xrotation Yrotation
				JOINT RightArm
				{
					OFFSET 0.0000 -111.4369 141.3570
					CHANNELS 6 Xposition Yposition Zposition Zrotation Xrotation Yrotation
					JOINT RightForeArm
					{
						OFFSET 0.0000 -172.4081 -79.8464
						CHANNELS 6 Xposition Yposition Zposition Zrotation Xrotation Yrotation
						JOINT RightWrist
						{
							OFFSET 0.0000 -209.8784 7.1457
							CHANNELS 6 Xposition Yposition Zposition Zrotation Xrotation Yrotation
							JOINT RightHand
							{
								OFFSET 0.0000 -64.9257 26.1658
								CHANNELS 6 Xposition Yposition Zposition Zrotation Xrotation Yrotation
								End Site
								{
									OFFSET 0.0000 -20.5704 56.3636
								}
							}
						}
					}
				}
			}
			JOINT Neck01
			{
				OFFSET 0.0000 4.1879 119.9269
				CHANNELS 6 Xposition Yposition Zposition Zrotation Xrotation Yrotation
				JOINT Neck02
				{
					OFFSET 0.0000 -14.3102 88.8550
					CHANNELS 6 Xposition Yposition Zposition Zrotation Xrotation Yrotation
					JOINT Neck03
					{
						OFFSET 0.0000 72.0997 53.8668
						CHANNELS 6 Xposition Yposition Zposition Zrotation Xrotation Yrotation
						JOINT Neck04
						{
							OFFSET 0.0000 88.9597 -13.6445
							CHANNELS 6 Xposition Yposition Zposition Zrotation Xrotation Yrotation
							JOINT Head
							{
								OFFSET 0.0000 19.3735 72.4546
								CHANNELS 6 Xposition Yposition Zposition Zrotation Xrotation Yrotation
								End Site
								{
									OFFSET 0.0000 -28.2512 167.6361
								}
								JOINT LeftEar
								{
									OFFSET 45.0000 62.4894 -9.7509
									CHANNELS 6 Xposition Yposition Zposition Zrotation Xrotation Yrotation
									End Site
									{
										OFFSET 23.1256 59.6428 28.4242
									}
								}
								JOINT RightEar
								{
									OFFSET -45.0000 62.4894 -9.7509
									CHANNELS 6 Xposition Yposition Zposition Zrotation Xrotation Yrotation
									End Site
									{
										OFFSET -23.1256 59.6428 28.4242
									}
								}
							}
						}
					}
				}
			}
		}
	}
	JOINT LeftLeg
	{
		OFFSET 75.0000 -65.3041 -110.1607
		CHANNELS 6 Xposition Yposition Zposition Zrotation Xrotation Yrotation
		JOINT LeftLowerLeg
		{
			OFFSET 0.0000 -209.4885 14.6489
			CHANNELS 6 Xposition Yposition Zposition Zrotation Xrotation Yrotation
			JOINT LeftAnkle
			{
				OFFSET 0.0000 -168.5298 -141.4133
				CHANNELS 6 Xposition Yposition Zposition Zrotation Xrotation Yrotation
				JOINT LeftFoot
				{
					OFFSET 0.0000 -96.5926 25.8819
					CHANNELS 6 Xposition Yposition Zposition Zrotation Xrotation Yrotation
					End Site
					{
						OFFSET 0.0000 -19.5341 56.7311
					}
				}
			}
		}
	}
	JOINT RightLeg
	{
		OFFSET -75.0000 -65.3041 -110.1607
		CHANNELS 6 Xposition Yposition Zposition Zrotation Xrotation Yrotation
		JOINT RightLowerLeg
		{
			OFFSET 0.0000 -209.4885 14.6489
			CHANNELS 6 Xposition Yposition Zposition Zrotation Xrotation Yrotation
			JOINT RightAnkle
			{
				OFFSET 0.0000 -168.5298 -141.4133
				CHANNELS 6 Xposition Yposition Zposition Zrotation Xrotation Yrotation
				JOINT RightFoot
				{
					OFFSET 0.0000 -96.5926 25.8819
					CHANNELS 6 Xposition Yposition Zposition Zrotation Xrotation Yrotation
					End Site
					{
						OFFSET 0.0000 -19.5341 56.7311
					}
				}
			}
		}
	}
	JOINT TailBase
	{
		OFFSET 0.0000 -22.9100 -124.3991
		CHANNELS 6 Xposition Yposition Zposition Zrotation Xrotation Yrotation
		JOINT Tail1
		{
			OFFSET 0.0000 0.0000 -67.0000
			CHANNELS 6 Xposition Yposition Zposition Zrotation Xrotation Yrotation
			JOINT Tail2
			{
				OFFSET 0.0000 0.0000 -67.0000
				CHANNELS 6 Xposition Yposition Zposition Zrotation Xrotation Yrotation
				JOINT Tail3
				{
					OFFSET 0.0000 0.0000 -67.0000
					CHANNELS 6 Xposition Yposition Zposition Zrotation Xrotation Yrotation
					JOINT Tail4
					{
						OFFSET 0.0000 0.0000 -67.0000
						CHANNELS 6 Xposition Yposition Zposition Zrotation Xrotation Yrotation
						JOINT Tail5
						{
							OFFSET 0.0000 0.0000 -67.0000
							CHANNELS 6 Xposition Yposition Zposition Zrotation Xrotation Yrotation
							JOINT Tail6
							{
								OFFSET 0.0000 0.0000 -67.0000
								CHANNELS 6 Xposition Yposition Zposition Zrotation Xrotation Yrotation
								End Site
								{
									OFFSET 0.0000 0.0000 -67.0000
								}
							}
						}
					}
				}
			}
		}
	}
}
MOTION
Frames: 5
Frame Time: 0.008342
-36.0319 578.9470 -1164.6900 -0.3164 1.2965 -138.7599 -0.0000 -16.7008 118.8322 -0.8246 2.4446 11.2449 0.0000 11.8586 169.5859 0.9905 1.2149 13.2214 50.3480 19.5556 18.4299 -0.5372 -6.8975 23.5987 0.0000 -111.4369 141.3570 1.1014 -3.4274 -14.4891 0.0000 -172.4081 -79.8464 0.4862 -9.1680 -14.1661 -0.0000 -209.8784 7.1457 2.7428 15.2623 0.0977 0.0000 -64.9257 26.1658 -7.2986 -0.0068 2.6783 -73.2963 19.3957 51.1439 -5.6900 -8.5268 -1.8456 0.0000 -111.4369 141.3570 1.7517 2.0509 2.2670 0.0000 -172.4081 -79.8464 0.0930 9.2684 -2.7110 0.0000 -209.8784 7.1457 -0.0458 0.2180 -0.0016 0.0000 -64.9257 26.1658 12.1781 -2.3012 -4.0170 0.0000 4.1879 119.9269 -6.6588 -17.7007 4.6425 0.0000 -14.3102 88.8550 -1.4997 -0.8524 24.4746 -0.0000 72.0997 53.8668 -11.1876 2.3187 2.5796 0.0000 88.9597 -13.6445 -0.2210 18.4911 -0.9281 0.0000 19.3735 72.4546 29.0139 -10.0973 42.6676 70.5607 55.9711 -6.5000 -21.9352 9.4439 3.7020 -48.5325 66.0217 -14.7486 14.0793 5.8388 4.7304 75.0000 -65.3041 -110.1607 15.4690 -1.8575 5.7250 -0.0000 -209.4885 14.6489 -0.0000 -13.1512 -0.0000 0.0000 -168.5298 -141.4133 0.0000 1.8391 0.0000 0.0000 -96.5926 25.8819 -0.7872 4.3813 0.3304 -75.0000 -65.3041 -110.1607 -8.7209 -9.4904 -13.3481 0.0000 -209.4885 14.6489 -0.0000 -8.7279 0.0000 0.0000 -168.5298 -141.4133 0.0000 1.0351 -0.0000 0.0000 -96.5926 25.8819 -6.1789 5.8307 2.7553 -0.0000 -22.9100 -124.3991 6.0342 -31.4408 9.3473 0.0000 0.0000 -67.0000 -6.5264 -24.7372 -15.2904 0.0000 -0.0000 -67.0000 -0.3115 -3.2142 -5.5380 -0.0000 0.0000 -67.0000 -0.5974 -4.6834 -7.2778 0.0000 0.0000 -67.0000 -2.6410 18.0846 8.4520 0.0000 -0.0000 -67.0000 -10.7597 28.8332 21.5066 0.0000 0.0000 -67.0000 -2.6883 24.5862 6.4388 
-33.7518 579.0180 -1165.5600 -0.2963 1.3172 -138.7395 0.0000 -16.7008 118.8322 -0.8973 2.4302 11.3737 0.0000 11.8586 169.5859 1.0113 1.3459 13.3623 50.3361 19.3818 18.6451 -0.4691 -6.7958 23.6947 0.0000 -111.4369 141.3570 0.9157 -3.7282 -14.6554 0.0000 -172.4081 -79.8464 0.4975 -9.4671 -14.4878 0.0000 -209.8784 7.1457 2.8381 14.9912 0.1009 0.0000 -64.9257 26.1658 -7.2819 0.4936 2.7359 -72.9740 19.4224 51.6300 -5.8580 -8.4914 -1.6768 0.0000 -111.4369 141.3570 2.0429 2.0038 2.2170 0.0000 -172.4081 -79.8464 0.1031 8.9339 -3.0100 0.0000 -209.8784 7.1457 -0.2501 0.0849 -0.0085 0.0000 -64.9257 26.1658 12.2895 -2.2579 -4.0646 0.0000 4.1879 119.9269 -6.8857 -17.2796 5.0816 0.0000 -14.3102 88.8550 -1.7110 -0.7387 24.7899 0.0000 72.0997 53.8668 -11.3763 2.3290 2.7025 0.0000 88.9597 -13.6445 -0.5658 18.5090 -1.9920 -0.0000 19.3735 72.4546 28.7295 -9.3378 44.6446 71.3609 56.2880 -6.2585 -21.3018 9.9859 3.3894 -48.9468 65.8372 -14.9096 15.0042 6.4097 4.7270 75.0000 -65.3041 -110.1607 15.7326 -1.8916 5.8822 0.0000 -209.4885 14.6489 -0.0000 -13.3630 0.0000 0.0000 -168.5298 -141.4133 0.0000 2.1976 0.0000 0.0000 -96.5926 25.8819 -0.8569 4.4140 0.3602 -75.0000 -65.3041 -110.1607 -8.4235 -9.5417 -13.2640 0.0000 -209.4885 14.6489 -0.0000 -8.7560 -0.0000 -0.0000 -168.5298 -141.4133 0.0000 0.9135 0.0000 -0.0000 -96.5926 25.8819 -6.1830 5.9644 2.7710 0.0000 -22.9100 -124.3991 5.9741 -31.4118 9.2609 -0.0000 -0.0000 -67.0000 -6.5311 -24.6483 -15.3504 0.0000 0.0000 -67.0000 -0.3037 -3.0876 -5.6197 0.0000 0.0000 -67.0000 -0.5980 -4.6057 -7.4065 0.0000 0.0000 -67.0000 -2.5829 17.9058 8.3470 0.0000 0.0000 -67.0000 -10.6274 28.8249 21.2654 -0.0000 0.0000 -67.0000 -2.5929 24.4132 6.2529 
-31.4251 579.1360 -1166.3800 -0.2739 1.3757 -138.7346 0.0000 -16.7008 118.8322 -0.9800 2.4428 11.5362 -0.0000 11.8586 169.5859 1.0142 1.4725 13.5176 50.3269 19.2300 18.8180 -0.2882 -6.7090 23.7540 0.0000 -111.4369 141.3570 0.6540 -4.0228 -14.7224 -0.0000 -172.4081 -79.8464 0.5171 -9.7387 -15.0588 0.0000 -209.8784 7.1457 2.8943 14.6482 0.1027 -0.0000 -64.9257 26.1658 -7.4948 1.2161 2.9114 -72.7181 19.3375 52.0813 -5.9736 -8.4527 -1.5190 0.0000 -111.4369 141.3570 2.3354 1.9458 2.1943 0.0000 -172.4081 -79.8464 0.1154 8.5748 -3.3720 -0.0000 -209.8784 7.1457 -0.5151 -0.0850 -0.0175 -0.0000 -64.9257 26.1658 12.3617 -2.1629 -4.1104 0.0000 4.1879 119.9269 -7.0765 -16.8708 5.4575 0.0000 -14.3102 88.8550 -1.8636 -0.7135 25.0780 0.0000 72.0997 53.8668 -11.5880 2.3390 2.8343 0.0000 88.9597 -13.6445 -0.8231 18.6141 -2.6047 0.0000 19.3735 72.4546 28.4183 -8.9975 45.8250 71.5640 56.6673 -5.9250 -21.1624 10.1299 3.3152 -49.0167 65.8509 -15.0881 15.3837 6.7803 4.7533 75.0000 -65.3041 -110.1607 16.0262 -1.9216 6.0690 0.0000 -209.4885 14.6489 0.0000 -13.5358 0.0000 0.0000 -168.5298 -141.4133 -0.0000 2.5666 0.0000 0.0000 -96.5926 25.8819 -0.9169 4.4112 0.3853 -75.0000 -65.3041 -110.1607 -8.1020 -9.5768 -13.2074 0.0000 -209.4885 14.6489 -0.0000 -8.7916 -0.0000 0.0000 -168.5298 -141.4133 0.0000 0.8344 0.0000 -0.0000 -96.5926 25.8819 -6.2203 6.0644 2.7983 0.0000 -22.9100 -124.3991 5.9226 -31.3710 9.1899 0.0000 0.0000 -67.0000 -6.5249 -24.5416 -15.3960 -0.0000 -0.0000 -67.0000 -0.2925 -2.9474 -5.6700 0.0000 0.0000 -67.0000 -0.5839 -4.4538 -7.4770 -0.0000 0.0000 -67.0000 -2.5131 17.7091 8.2105 0.0000 -0.0000 -67.0000 -10.4702 28.8086 20.9817 -0.0000 0.0000 -67.0000 -2.4980 24.3350 6.0435 
-29.0438 579.2960 -1167.1500 -0.2580 1.4633 -138.7476 0.0000 -16.7008 118.8322 -1.0682 2.4758 11.7391 0.0000 11.8586 169.5859 0.9897 1.5801 13.6895 50.3500 19.1243 18.9113 0.0650 -6.6389 23.7529 0.0000 -111.4369 141.3570 0.2608 -4.2801 -14.5844 0.0000 -172.4081 -79.8464 0.5432 -9.9980 -15.8229 0.0000 -209.8784 7.1457 2.8301 14.2710 0.1003 0.0000 -64.9257 26.1658 -7.8775 2.2966 3.2097 -72.5237 19.0966 52.5216 -6.0113 -8.3856 -1.3844 0.0000 -111.4369 141.3570 2.5884 1.8672 2.2021 0.0000 -172.4081 -79.8464 0.1280 8.2215 -3.7425 0.0000 -209.8784 7.1457 -0.8099 -0.3307 -0.0276 0.0000 -64.9257 26.1658 12.4585 -2.0021 -4.1797 -0.0000 4.1879 119.9269 -7.2764 -16.3930 5.7679 0.0000 -14.3102 88.8550 -1.9674 -0.7203 25.3102 -0.0000 72.0997 53.8668 -11.8272 2.3388 2.9932 -0.0000 88.9597 -13.6445 -1.0458 18.6954 -2.7444 0.0000 19.3735 72.4546 28.1671 -9.1303 46.3715 71.1754 57.2130 -5.5895 -21.2507 10.0886 3.3527 -48.4188 65.9366 -15.1374 14.9260 6.4148 4.7458 75.0000 -65.3041 -110.1607 16.3352 -1.9448 6.2788 -0.0000 -209.4885 14.6489 -0.0000 -13.6759 0.0000 0.0000 -168.5298 -141.4133 0.0000 2.9610 0.0000 0.0000 -96.5926 25.8819 -0.9762 4.3587 0.4094 -75.0000 -65.3041 -110.1607 -7.7698 -9.5969 -13.1836 -0.0000 -209.4885 14.6489 -0.0000 -8.8343 -0.0000 0.0000 -168.5298 -141.4133 0.0000 0.7961 -0.0000 0.0000 -96.5926 25.8819 -6.3092 6.1371 2.8463 0.0000 -22.9100 -124.3991 5.8837 -31.3235 9.1393 0.0000 -0.0000 -67.0000 -6.5017 -24.4129 -15.4156 0.0000 -0.0000 -67.0000 -0.2774 -2.7924 -5.6758 0.0000 -0.0000 -67.0000 -0.5584 -4.2602 -7.4739 -0.0000 -0.0000 -67.0000 -2.4465 17.5271 8.0748 0.0000 -0.0000 -67.0000 -10.3431 28.8252 20.7337 0.0000 -0.0000 -67.0000 -2.4381 24.4528 5.8728 
-26.5886 579.4800 -1167.9000 -0.2739 1.5725 -138.7860 0.0000 -16.7008 118.8322 -1.1674 2.5494 11.9950 0.0000 11.8586 169.5859 0.9484 1.6550 13.8677 50.5403 19.1649 18.8448 0.5190 -6.5573 23.6887 0.0000 -111.4369 141.3570 -0.2424 -4.5023 -14.4739 -0.0000 -172.4081 -79.8464 0.5690 -10.4013 -16.5682 0.0000 -209.8784 7.1457 2.5768 14.1154 0.0912 0.0000 -64.9257 26.1658 -8.3921 3.7501 3.6324 -72.2694 18.7989 53.0606 -5.9790 -8.2526 -1.2499 0.0000 -111.4369 141.3570 2.7612 1.7580 2.2353 0.0000 -172.4081 -79.8464 0.1401 7.8473 -4.0995 0.0000 -209.8784 7.1457 -1.1144 -0.6213 -0.0379 -0.0000 -64.9257 26.1658 12.6178 -1.8015 -4.2805 0.0000 4.1879 119.9269 -7.5316 -15.8344 6.0348 0.0000 -14.3102 88.8550 -2.0566 -0.7793 25.5806 -0.0000 72.0997 53.8668 -12.1240 2.3515 3.1603 0.0000 88.9597 -13.6445 -1.3314 18.7859 -3.0929 0.0000 19.3735 72.4546 27.8188 -9.2395 47.0700 70.6193 57.9481 -5.2756 -20.9604 10.0691 3.2581 -47.9664 65.8298 -15.0440 13.8124 5.3398 4.6521 75.0000 -65.3041 -110.1607 16.6347 -1.9380 6.5047 -0.0000 -209.4885 14.6489 -0.0000 -13.7888 0.0000 0.0000 -168.5298 -141.4133 0.0000 3.3510 -0.0000 -0.0000 -96.5926 25.8819 -1.0283 4.2878 0.4300 -75.0000 -65.3041 -110.1607 -7.4479 -9.5913 -13.1545 0.0000 -209.4885 14.6489 -0.0000 -8.8723 -0.0000 0.0000 -168.5298 -141.4133 0.0000 0.7404 0.0000 0.0000 -96.5926 25.8819 -6.4329 6.2052 2.9100 0.0000 -22.9100 -124.3991 5.8571 -31.2403 9.1144 0.0000 -0.0000 -67.0000 -6.4602 -24.2830 -15.3945 0.0000 -0.0000 -67.0000 -0.2580 -2.6243 -5.6164 -0.0000 -0.0000 -67.0000 -0.5218 -4.0326 -7.3790 0.0000 0.0000 -67.0000 -2.3873 17.3631 7.9527 0.0000 -0.0000 -67.0000 -10.2593 28.8520 20.5604 0.0000 0.0000 -67.0000 -2.3963 24.6489 5.7299 
